<svg id="Layer_1" enable-background="new 0 0 512 512" height="512" viewBox="0 0 512 512" width="512" xmlns="http://www.w3.org/2000/svg"><g id="XMLID_1469_"><g id="XMLID_1870_"><g id="XMLID_1872_"><path id="XMLID_133_" d="m256 377.987-105.417 76.943c-26.039 19.006-61.158-6.509-51.129-37.147l40.601-124.034-106.063-76.707c-26.092-18.87-12.744-60.105 19.457-60.105h130.894l40.065-123.947c9.909-30.653 53.276-30.653 63.185 0l40.065 123.947h130.894c32.2 0 45.549 41.235 19.457 60.105l-106.064 76.706 40.601 124.034c10.029 30.638-25.09 56.153-51.129 37.147z" fill="#ffcb7c"/></g><g id="XMLID_1871_"><path d="m256 377.987-105.417 76.943c-26.039 19.006-61.158-6.509-51.129-37.147l40.601-124.034-106.063-76.707c-26.092-18.87-12.744-60.105 19.457-60.105h130.894l40.065-123.947c9.909-30.653 53.276-30.653 63.185 0l40.065 123.947h130.894c32.2 0 45.549 41.235 19.457 60.105l-106.064 76.706 40.601 124.034c10.029 30.638-25.09 56.153-51.129 37.147z" fill="#ffcb7c"/></g></g><g id="XMLID_1736_"><path d="m393.715 502v-41.167c0-35.762-28.991-64.753-64.753-64.753h-34.271-77.383-34.271c-35.762 0-64.753 28.991-64.753 64.753v41.167z" fill="#8690a6"/></g><g id="XMLID_66_"><path id="XMLID_14_" d="m284.618 396.081v-29.573h-57.236v29.573l28.618 62.854z" fill="#fff"/></g><g id="XMLID_1733_"><path d="m313.236 266.535v43.476c0 37.078-25.625 62.703-57.236 62.703-31.61 0-57.236-25.625-57.236-57.236v-48.943z" fill="#ffbf9e"/></g><g id="XMLID_1731_"><path id="XMLID_123_" d="m243.369 214.253h79.27v24.904c0 24.635-19.97 44.605-44.605 44.605h-79.27v-24.904c0-24.635 19.971-44.605 44.605-44.605z" fill="#c68a65"/></g><g id="XMLID_180_"><path id="XMLID_181_" d="m377 74h7v7c0 5.523 4.478 10 10 10s10-4.477 10-10v-7h7c5.522 0 10-4.477 10-10s-4.478-10-10-10h-7v-7c0-5.523-4.478-10-10-10s-10 4.477-10 10v7h-7c-5.522 0-10 4.477-10 10s4.478 10 10 10z"/><path id="XMLID_182_" d="m70.5 320.968h-7v-7c0-5.523-4.478-10-10-10s-10 4.477-10 10v7h-7c-5.522 0-10 4.477-10 10s4.478 10 10 10h7v7c0 5.523 4.478 10 10 10s10-4.477 10-10v-7h7c5.522 0 10-4.477 10-10s-4.478-10-10-10z"/><path id="XMLID_183_" d="m491.817 337.968h-7v-7c0-5.523-4.478-10-10-10s-10 4.477-10 10v7h-7c-5.522 0-10 4.477-10 10s4.478 10 10 10h7v7c0 5.523 4.478 10 10 10s10-4.477 10-10v-7h7c5.522 0 10-4.477 10-10s-4.477-10-10-10z"/><path id="XMLID_186_" d="m383.72 297.574 100.149-72.429c15.468-11.187 21.664-30.15 15.784-48.312-5.879-18.161-22.013-29.896-41.102-29.896h-123.615l-37.829-117.023c-5.874-18.172-22.009-29.914-41.107-29.914s-35.233 11.742-41.108 29.914l-37.827 117.022h-123.617c-19.089 0-35.223 11.735-41.102 29.896-5.88 18.162.316 37.125 15.784 48.312l100.149 72.429-38.329 117.099c-7.103 21.7 3.444 40.753 18.335 50.149v37.179c0 5.523 4.478 10 10 10h92.715c5.522 0 10-4.477 10-10s-4.478-10-10-10h-82.715v-31.167c0-30.191 24.563-54.753 54.753-54.753h37.909l25.952 56.998c1.624 3.566 5.182 5.856 9.101 5.856s7.477-2.29 9.101-5.856l25.952-56.999h37.91c30.19 0 54.753 24.563 54.753 54.753v31.168h-82.716c-5.522 0-10 4.477-10 10s4.478 10 10 10h92.716c5.522 0 10-4.477 10-10v-37.179c14.89-9.396 25.437-28.449 18.334-50.149zm-174.955-3.812h69.27c9.087 0 17.656-2.244 25.201-6.187v22.436c0 30.538-19.865 52.703-47.235 52.703-26.046 0-47.235-21.19-47.235-47.236v-21.716zm103.875-54.605c0 19.082-15.524 34.605-34.605 34.605h-69.27v-14.904c0-19.082 15.523-34.605 34.604-34.605h69.271zm-56.64 195.645-18.618-40.89v-13.84c5.917 1.708 12.159 2.643 18.618 2.643 6.513 0 12.745-.922 18.618-2.624v13.821zm144.828 5.509c-8.943-31.269-37.764-54.231-71.865-54.231h-34.345v-15.82c17.533-12.849 28.617-34.591 28.617-60.249v-40.253c5.933-8.735 9.404-19.27 9.404-30.602v-24.904c0-5.523-4.478-10-10-10h-79.271c-30.109 0-54.604 24.496-54.604 54.605v56.62c0 22.709 11.328 42.809 28.617 54.988v15.613h-34.344c-34.102 0-62.923 22.963-71.866 54.232-3.338-5.252-4.644-11.996-2.214-19.418l40.601-124.035c1.353-4.132-.12-8.666-3.644-11.214l-106.062-76.704c-10.083-7.292-10.99-18.184-8.478-25.946s9.631-16.056 22.074-16.056h130.894c4.338 0 8.181-2.797 9.516-6.924l40.065-123.946c3.829-11.846 13.915-16.067 22.077-16.067s18.248 4.221 22.077 16.065l40.065 123.947c1.335 4.127 5.178 6.924 9.516 6.924h130.894c12.443 0 19.562 8.294 22.074 16.056s1.605 18.654-8.478 25.946l-106.063 76.706c-3.523 2.548-4.996 7.082-3.644 11.214l40.601 124.035c2.429 7.422 1.124 14.166-2.214 19.418z"/><path id="XMLID_192_" d="m256 492c-2.63 0-5.21 1.07-7.07 2.93s-2.93 4.44-2.93 7.07 1.069 5.21 2.93 7.07 4.44 2.93 7.07 2.93 5.21-1.07 7.069-2.93c1.86-1.86 2.931-4.44 2.931-7.07s-1.07-5.21-2.931-7.07c-1.859-1.86-4.439-2.93-7.069-2.93z"/></g></g></svg>